<svg version="1" xmlns="http://www.w3.org/2000/svg" width="933.333" height="933.333" viewBox="0 0 700.000000 700.000000"><path d="M488 54l-3.5.5V80c.1 14.1.4 26 .8 26.6.4.7 9.3 1.1 26.9 1.1h26.3V54h-3c-1.6 0-12.2-.1-23.5-.3-11.3-.1-22.1 0-24 .3z"/><path d="M216.9 107.8c-1.3.2-1.5 3.9-1.4 25 0 13.6-.1 25.6-.3 26.7-.3 2-1 2-26.8 2-17 0-26.5.3-26.7 1-.2.5-.3 12.4-.3 26.3.1 17.8.5 25.5 1.3 26 .6.4 36.8.7 80.5.7l79.3-.1.5-26.9.5-27H377v54h269v-7c.3-35.6 0-99.9-.5-100.3-.8-.8-103.7-.9-105.5-.1-1.3.6-1.5 4.2-1.5 25.6.1 13.6-.1 25.5-.4 26.3-.5 1.3-4.3 1.5-26.6 1.6-14.3 0-26.2-.3-26.5-.7-.3-.4-.5-12.6-.4-27.1l.1-26.3-26.4.1c-14.5 0-26.6.4-26.9.7-.4.3-.6 12.3-.6 26.6 0 19-.3 26-1.1 26.3-.7.2-12.7.4-26.7.4l-25.5-.1-.3-26.8c-.2-20.3-.5-26.7-1.5-26.8-3.6-.2-157.6-.4-158.8-.1z"/><path d="M54 172.5V280l-.1 96.5 26.8.5 26.8.5.1 26.5v26.5l80.7.2 80.7.1.1-5.1v-27L269 377h54v53.8h107.1c70.4 0 107.4.4 107.8 1 .3.6.6 24.5.6 53.2 0 45.5.2 52.3 1.5 52.9.8.4 12.7.7 26.3.7 14.6-.1 25.1.3 25.5.8 1.1 1.8.8 50.9-.4 52-.7.7-9.5 1.1-26.5 1-14-.1-25.6-.2-25.9-.3-.3-.1-.5-12.1-.5-26.9v-26.7H377v26.7c0 14.8.3 26.8.8 26.9.4 0 12.4.2 26.7.2l26 .2V646h4c5.2.1 147.6.1 153.5 0h4.5l-.1-26.8-.1-26.8h26.9l26.8.1v-7.3c.1-9.4.1-205.9 0-207.2 0-.6-9.6-1-26.9-1h-26.8l.1 25.7c.1 14.2 0 26.3-.2 26.9-.2.9-7.9 1.2-27 1.2l-26.7.1V377h26.7c14.8 0 26.8-.3 26.9-.8.3-2.5.4-50.9.1-51.9-.3-1-22.8-1.3-107.8-1.3H377v54h-54v-54H161.5V215.3l-26 .2c-14.3 0-26.4-.3-27-.6-.6-.5-1-10.4-.9-26.8.1-14.4-.1-26.2-.5-26.2-.3-.1-12.4-.2-26.8-.3l-26.3-.1v11zm107.2 151.7c.2.7.4 12.8.4 26.8l-.1 25.5-26.8.3c-24.9.2-26.7.1-26.8-1.5-.1-2.3-.1-50.5 0-51.6.1-.4 12-.7 26.5-.7 20.2 0 26.5.3 26.8 1.2z"/><path d="M107.9 541c0 1.4-.1 13.5-.2 27v24.5l-26.9-.1-26.8-.1-.1 9.3c-.1 11.7-.1 15.1 0 31.6l.1 13.3 159.2-.2c87.6-.1 160.3-.2 161.6-.3h2.2l-.2-26.8-.3-26.7-25-.1c-13.7-.1-25.8-.2-26.7-.3-1.7-.1-1.8-2.1-1.8-26.9v-26.7H108l-.1 2.5z"/></svg>